<svg height="48pt" viewBox="0 0 48 48" width="48pt" xmlns="http://www.w3.org/2000/svg" xmlns:xlink="http://www.w3.org/1999/xlink"><linearGradient id="a" gradientUnits="userSpaceOnUse" x1="1.363848" x2="46.724108" y1="2.432916" y2="49.180892"><stop offset="0" stop-color="#f9d423"/><stop offset=".51562375651" stop-color="#ff4e50"/><stop offset=".99130434783" stop-color="#8a2387"/></linearGradient><linearGradient id="b"><stop offset="0" stop-color="#00c4ff"/><stop offset=".83888397938" stop-color="#0072ff"/></linearGradient><linearGradient id="c" gradientTransform="matrix(10.9 0 0 11 29.798 29.5)" gradientUnits="userSpaceOnUse" x1="0" x2=".907488" xlink:href="#b" y1=".5" y2=".920078"/><linearGradient id="d" gradientUnits="userSpaceOnUse" x1="25.248" x2="43.39776" xlink:href="#b" y1="35" y2="43.40156"/><linearGradient id="e" x1="0" x2=".907488" xlink:href="#b" y1=".5" y2=".920078"/><path d="m21 42c1.104 0 2 .896 2 2 0 1.104-.896 2-2 2h-14c-2.76 0-5-2.24-5-5v-15c0-1.104.896-2 2-2 1.104 0 2 .896 2 2v13c0 1.656 1.344 3 3 3zm-15-26c0 1.104-.896 2-2 2-1.104 0-2-.896-2-2v-9c0-2.76 2.24-5 5-5h34c2.76 0 5 2.24 5 5v13c0 1.104-.896 2-2 2-1.104 0-2-.896-2-2v-11c0-1.656-1.344-3-3-3h-30c-1.656 0-3 1.344-3 3zm10-5h16v6h-12v5h5.999v4h-5.999v11h-4z" fill="url(#a)" fill-rule="evenodd"/><path d="m33.874 29.5-.121 1.449c-.459.17-.886.417-1.263.73l-1.316-.62-1.375 2.382 1.195.83c-.043.24-.065.484-.066.729 0 .245.021.49.063.732l-1.193.827 1.375 2.382 1.314-.619c.378.312.806.558 1.266.726l.12 1.452h2.75l.121-1.449c.459-.17.886-.417 1.263-.73l1.316.62 1.375-2.382-1.195-.83c.042-.24.065-.484.066-.729 0-.245-.021-.49-.063-.732l1.192-.827-1.375-2.381-1.313.618c-.378-.311-.806-.556-1.266-.724l-.121-1.452h-2.75zm1.375 3.928c.417 0 .817.166 1.111.46.295.295.461.695.461 1.112 0 .416-.166.816-.461 1.111-.294.294-.694.46-1.111.46s-.816-.166-1.111-.46c-.295-.295-.46-.695-.46-1.111 0-.417.165-.817.46-1.112.295-.294.694-.46 1.111-.46z" fill="url(#c)"/><path d="m27.067 34.391c-.038.499-.475.875-.976.839-.501-.037-.878-.474-.84-.975.187-2.514 1.32-4.869 3.172-6.587 1.852-1.713 4.287-2.668 6.813-2.668 2.653 0 5.202 1.055 7.081 2.927 1.876 1.878 2.931 4.423 2.931 7.073s-1.055 5.195-2.931 7.073c-1.879 1.872-4.428 2.927-7.081 2.927-.502 0-.91-.407-.91-.909 0-.502.408-.909.91-.909 2.171 0 4.255-.864 5.794-2.396 1.533-1.536 2.398-3.618 2.398-5.786s-.865-4.25-2.398-5.786c-1.539-1.532-3.623-2.396-5.794-2.396-2.066 0-4.06.777-5.575 2.182-1.516 1.405-2.439 3.332-2.594 5.391zm4.36 7.854c.444.234.616.784.382 1.228-.234.444-.784.615-1.229.382-1.893-.996-3.422-2.573-4.355-4.496-.221-.451-.034-.996.419-1.216.452-.219.998-.031 1.219.421.765 1.577 2.012 2.863 3.564 3.681z" fill="url(#d)" fill-rule="evenodd" stroke="url(#e)" stroke-linecap="square" stroke-miterlimit="3"/></svg>