<svg version="1.2" xmlns="http://www.w3.org/2000/svg" viewBox="0 0 1543 926" width="1543" height="926">
	<title>semrush-svg</title>
	<style>
		.s0 { fill: #ff642d } 
	</style>
	<path id="Layer" fill-rule="evenodd" class="s0" d="m1036.5 925c-185.2 0-350.1-41.4-512.7-110.7-121.8-51.8-213.2-108.3-270.3-160.2-7-6.4-12.3-14.5-12.3-20.9 0-11.7 8.2-19.3 22.2-19.3h251.1c17.5 0 25-8.1 25.6-18 0-8.7-4.6-16.9-19.8-23.9-89.1-42.5-201-103.7-291.3-160.2-103.1-64.6-174.2-120.6-218.5-167.2-7.6-7.5-10.5-15.1-10.5-23.8 0-10.5 7.6-21 23.9-21h547.7c16.9 0 25.6-7.6 25.6-19.8 0-8.7-5.8-15.7-21.5-22.1-37.3-15.2-74.6-30.9-122.4-54.8-48.9-24.5-86.2-46.6-111.3-66.4-4.6-3.5-9.9-9.9-9.9-16.9 0-12.8 8.8-19.8 22.7-19.8h689.9c347.3 0 497.6 234.7 497.6 456.7 0 205.6-154.4 468.3-505.8 468.3zm375.9-466.6c0-180.4-147.2-326.2-329.2-326.2-182.1 0-329.2 145.8-329.2 326.2 0 180.4 147.1 326.2 329.2 326.2 182 0 329.2-145.8 329.2-326.2zm-82.2-1.7c0 28.5-14.6 33.2-50.7 33.2-38.4 0-45.4-6.4-49.5-35.6-7.6-73.9-57.7-136.8-141.6-143.8-26.8-2.4-33.2-12.3-33.2-45.5 0-30.8 4.7-45.4 28.5-45.4 145.7 0.6 246.5 117.7 246.5 237.1z"/>
</svg>