<svg width="436" height="233" viewBox="0 0 436 233" fill="none" xmlns="http://www.w3.org/2000/svg">
<g clip-path="url(#clip0_1_53)">
<rect width="436" height="232.391" rx="42" fill="#FFC247"/>
<g clip-path="url(#clip1_1_53)">
<path d="M259.249 146.32C256.875 145.139 254.141 144.905 251.6 145.664C249.059 146.423 246.902 148.119 245.564 150.408C244.589 152.101 243.556 153.736 242.466 155.314C240.626 158.153 238.644 160.896 236.527 163.534C232.519 168.452 226.723 171.577 220.413 172.223C214.102 172.868 207.793 170.981 202.873 166.977C201.62 165.94 200.467 164.788 199.43 163.534C197.365 160.952 195.385 158.241 193.491 155.443C183.825 140.543 177.132 123.912 173.781 106.469C171.852 96.9035 170.629 87.2087 170.123 77.4634C169.795 71.2067 171.701 65.0369 175.5 60.055C179.299 55.0732 184.746 51.6035 190.866 50.2651H191.167C200.038 48.3993 209.024 47.1341 218.065 46.478C227.09 47.1218 236.061 48.3727 244.919 50.2221H245.177C251.297 51.5704 256.739 55.0502 260.531 60.0402C264.323 65.0302 266.217 71.2055 265.877 77.4634C265.877 79.357 265.877 81.2936 265.489 83.3162C265.36 84.6916 265.505 86.0791 265.916 87.3979C266.328 88.7167 266.998 89.9404 267.887 90.9977C268.776 92.0551 269.867 92.925 271.095 93.5567C272.324 94.1885 273.666 94.5695 275.043 94.6776L300.52 96.7002C301.889 96.818 303.267 96.6639 304.576 96.2468C305.885 95.8297 307.098 95.1578 308.146 94.2698C309.194 93.3818 310.056 92.2952 310.682 91.0726C311.309 89.8501 311.687 88.5157 311.795 87.1464C313.018 72.1466 312.902 57.0678 311.451 42.0884C311.116 38.5811 310.079 35.177 308.4 32.0791C306.722 28.9812 304.437 26.2529 301.682 24.0566C277.755 5.20717 234.117 0.989714 221.507 -9.799e-05C219.172 -0.172168 216.828 -0.172168 214.493 -9.80049e-05C201.883 0.989714 158.245 5.20717 134.318 24.0566C131.564 26.2573 129.277 28.986 127.592 32.0825C125.907 35.1789 124.858 38.5808 124.506 42.0884C121.407 73.8485 118.481 177.951 206.273 229.163C209.898 231.276 214.019 232.39 218.215 232.39C222.411 232.39 226.532 231.276 230.157 229.163C253.627 215.516 273.098 195.941 286.62 172.399C287.317 171.213 287.773 169.901 287.962 168.538C288.152 167.175 288.07 165.788 287.722 164.457C287.374 163.126 286.767 161.876 285.936 160.78C285.104 159.684 284.064 158.762 282.876 158.069L282.23 157.724L259.249 146.32Z" fill="#FDB235"/>
</g>
</g>
<defs>
<clipPath id="clip0_1_53">
<rect width="436" height="232.391" rx="42" fill="white"/>
</clipPath>
<clipPath id="clip1_1_53">
<rect width="189.226" height="232.391" fill="white" transform="translate(123.387)"/>
</clipPath>
</defs>
</svg>
